<?xml version="1.0" encoding="utf-8"?>
<!-- Generator: Adobe Illustrator 24.1.2, SVG Export Plug-In . SVG Version: 6.00 Build 0)  -->
<svg version="1.1" id="Capa_1" xmlns="http://www.w3.org/2000/svg" xmlns:xlink="http://www.w3.org/1999/xlink" x="0px" y="0px"
	 viewBox="0 0 512 330" style="enable-background:new 0 0 512 330;" xml:space="preserve">
<style type="text/css">
	.st0{fill:#0707A3;}
</style>
<g>
	<path class="st0" d="M0,0v330h512V0L0,0z M482,300H30V30h452V300z"/>
	<path class="st0" d="M172.47,60H64.5v90h107.97V60z M142.47,120H94.5V90h47.97V120z"/>
	<path class="st0" d="M309.5,60H201.53v90H309.5V60z M279.5,120h-47.97V90h47.97V120z"/>
	<path class="st0" d="M447.5,60H339.53v90H447.5V60z M417.5,120h-47.97V90h47.97V120z"/>
	<path class="st0" d="M172.47,180H64.5v90h107.97V180z M142.47,240H94.5v-30h47.97V240z"/>
	<path class="st0" d="M309.5,180H201.53v90H309.5V180z M279.5,240h-47.97v-30h47.97V240z"/>
	<path class="st0" d="M447.5,180H339.53v90H447.5V180z M417.5,240h-47.97v-30h47.97V240z"/>
</g>
</svg>
