<?xml version="1.0" encoding="utf-8"?>
<!-- Generator: Adobe Illustrator 24.1.2, SVG Export Plug-In . SVG Version: 6.00 Build 0)  -->
<svg version="1.1" id="Capa_1" xmlns="http://www.w3.org/2000/svg" xmlns:xlink="http://www.w3.org/1999/xlink" x="0px" y="0px"
	 viewBox="0 0 512 512" style="enable-background:new 0 0 512 512;" xml:space="preserve">
<style type="text/css">
	.st0{fill:#0707A3;}
</style>
<g>
	<path class="st0" d="M511.98,251.39L350.35,89.76l-62.92,34.98l34.44-63.45L260.59,0L59.05,201.54l72.51,72.51L0.02,405.68
		L106.35,512l131.54-131.63l72.55,72.55L511.98,251.39z M260.59,42.52l24.16,24.16l-47.34,87.22l21.25,21.25l86.48-48.08
		l124.33,124.33L352.25,368.61L143.37,159.73L260.59,42.52z M106.34,469.48l-63.81-63.81l68.57-68.63l63.81,63.81L106.34,469.48z
		 M196.16,379.59l-63.81-63.81l20.47-20.47l63.81,63.81L196.16,379.59z M310.44,410.41L101.57,201.54l20.54-20.55l208.88,208.88
		L310.44,410.41z"/>
	<path class="st0" d="M84.64,405.99l21.25-21.25l21.25,21.25l-21.25,21.25L84.64,405.99z"/>
</g>
</svg>
