<?xml version="1.0" encoding="utf-8"?>
<!-- Generator: Adobe Illustrator 24.1.2, SVG Export Plug-In . SVG Version: 6.00 Build 0)  -->
<svg version="1.1" id="Capa_1" xmlns="http://www.w3.org/2000/svg" xmlns:xlink="http://www.w3.org/1999/xlink" x="0px" y="0px"
	 viewBox="0 0 450.81 512" style="enable-background:new 0 0 450.81 512;" xml:space="preserve">
<style type="text/css">
	.st0{fill:#0707A3;}
</style>
<g>
	<path class="st0" d="M264.6,315.47l186.22-186.53L321.88,0L135.81,186.38l-28.99,87.78L51.9,329.09l33.65,33.65
		c-24.9,18.39-63.97,20.3-78.79,50.52c-16.42,34.27-1.9,75.52,32.37,91.94c16.63,7.97,35.35,8.96,52.68,2.85
		c17.37-6.11,31.31-18.63,39.27-35.23c12.37-25.77,15.5-63.95,4.89-91.62l38.79-38.79L264.6,315.47z M137.19,278.2l18.42-55.79
		l72.55,72.55l-57.09,17.12L137.19,278.2z M321.9,42.59l86.36,86.36L256.62,280.85l-86.36-86.36L321.9,42.59z M103.93,459.82
		c-9.28,19.5-32.9,27.4-51.78,18.23c-19-8.63-27.64-33.15-18.23-51.78c4.04-8.43,16.7-13.64,31.36-19.66
		c12.96-5.32,27.18-11.16,39.87-20.87C116.47,409.38,113.45,438.24,103.93,459.82L103.93,459.82z M119.99,354.6l-25.52-25.52
		l25.52-25.52l25.52,25.52L119.99,354.6z"/>
	<path class="st0" d="M238.22,191.26l77.99-77.99l21.28,21.28l-77.99,77.99L238.22,191.26z"/>
</g>
</svg>
