<?xml version="1.0" encoding="utf-8"?>
<!-- Generator: Adobe Illustrator 24.1.2, SVG Export Plug-In . SVG Version: 6.00 Build 0)  -->
<svg version="1.1" id="Capa_1" xmlns="http://www.w3.org/2000/svg" xmlns:xlink="http://www.w3.org/1999/xlink" x="0px" y="0px"
	 viewBox="0 0 512 488.81" style="enable-background:new 0 0 512 488.81;" xml:space="preserve">
<style type="text/css">
	.st0{fill:#0707A3;}
</style>
<g>
	<path class="st0" d="M511.42,265.81c0.8-35.47-27.89-68.27-62.49-72.75c62.38-62.95-13.58-160.12-89.35-116.05
		c7.65-39.16-24.26-77.6-64.38-77c0,0-196.75,0-196.75,0c-57.81,0.06-82.36,74.81-35.5,108.8c15.84,11.53,35.67,14.66,54.39,8.61
		c12.45-4.9,21.49,3.45,23.61,6.76c1.96,2.65,7.79,12.16,0.46,23.01c-46.88,72.68-78.84,110.96-51.52,174L0,398.79v90.01h90.4
		l94.76-115.29l39.51,39.51c46.87,46.88,123.15,46.88,170.02,0l95.17-95.17C503.76,303.96,511.42,285.47,511.42,265.81
		L511.42,265.81z M76.2,458.76H30.05v-46.21l136.9-118.21c6.1,9.39,14.58,17.97,24.48,24.23L76.2,458.76z M245.49,242.07
		c-10.23-18.27-13.42-32.31-13.84-40.37c20.88-4.7,42.24-8.51,63.05-20.29c10.3,32.7-1.64,99.54-36.82,115.08
		C260.61,279.28,256.38,261.74,245.49,242.07L245.49,242.07z M202.49,211.19c2.09,14.08,7.72,29.39,16.78,45.56
		c10.03,17.91,12,33.16,5.78,43.62c-36.36-7.09-53.72-51.37-31.76-81.31C195.56,215.89,198.7,213.34,202.49,211.19L202.49,211.19z
		 M468.6,296.62l-95.17,95.17c-35.16,35.16-92.37,35.16-127.53,0l-41.59-41.59l16.46-20.02c30.78,5.85,63.67-7.3,81.67-33.02
		c25.35-33.94,38.33-114.83,8.79-147.09c0,0-9.58-11.36-9.58-11.36l-11.46,9.46c-16.39,13.52-37.74,18.2-58.38,22.72
		c-23.91,5.24-48.63,10.65-62.96,30.69c-13.62,19.04-17.9,41.97-13.79,63.32l-41.02,35.42c-4.17-12.68-6.54-29.11-0.56-45.86
		c6.07-16.99,24.34-48.28,52.84-90.48c27.05-39.73-13.06-91.26-58.23-75.17c-19.14,6.58-40.13-8.27-39.8-28.59
		c0-16.64,13.54-30.17,30.17-30.17H295.2c24.45-0.45,42.27,25.57,32.94,48.22l-3.57,9.14l32.13,32.13l10.62-10.62
		c42.57-39.18,100.79,19.07,61.62,61.62l-43.2,43.2L406.98,235c16.99-16.99,44.63-16.99,61.62,0
		C485.51,251.21,485.51,280.4,468.6,296.62L468.6,296.62z"/>
</g>
</svg>
