<?xml version="1.0" encoding="utf-8"?>
<!-- Generator: Adobe Illustrator 24.1.2, SVG Export Plug-In . SVG Version: 6.00 Build 0)  -->
<svg version="1.1" id="Capa_1" xmlns="http://www.w3.org/2000/svg" xmlns:xlink="http://www.w3.org/1999/xlink" x="0px" y="0px"
	 viewBox="0 0 512 456.48" style="enable-background:new 0 0 512 456.48;" xml:space="preserve">
<style type="text/css">
	.st0{fill:#0707A3;}
</style>
<path class="st0" d="M512,123.5h-35l34.18-34.26l-71.57-71.86L333.74,123.5H192.01v-28C186.77-31.78,5.3-31.88,0.02,95.5
	c-0.07,28.08,0.05,205.65,0,229.31c0,72.6,59.07,131.67,131.67,131.67H459v-74h53V123.5z M468.82,89.22l-23.34,23.4l-29.29-29.29
	l23.4-23.46L468.82,89.22z M424.29,133.85l-116.5,116.77h-27.78v-30.8l115-115.26L424.29,133.85z M96.02,29.5
	c36.39,0,66,29.61,66,66v28c0,19.36,0,73.29,0,93.35c-35.34-34.88-96.66-34.87-131.99,0V95.5C30.02,59.11,59.63,29.5,96.02,29.5z
	 M162.01,286.49v13c0,28.55-22.7,51.89-51,52.95v-130.2C140.2,229.05,162.01,255.26,162.01,286.49z M429,426.49H131.69
	c-56.06,0-101.67-45.61-101.67-101.67c0.01-9.07,0-29.41,0-38.32c0-31.23,21.81-57.45,51-64.26v160.25H429V426.49z M482,352.49
	H172.83c11.57-13.91,18.67-31.64,19.13-51h0.05c0-4.92,0-139.37,0-147.99h111.8l-53.8,53.92v73.2h70.22L447.07,153.5H482L482,352.49
	L482,352.49z"/>
</svg>
