<?xml version="1.0" encoding="utf-8"?>
<!-- Generator: Adobe Illustrator 24.1.2, SVG Export Plug-In . SVG Version: 6.00 Build 0)  -->
<svg version="1.1" id="Режим_изоляции"
	 xmlns="http://www.w3.org/2000/svg" xmlns:xlink="http://www.w3.org/1999/xlink" x="0px" y="0px" viewBox="0 0 4.41 4.4"
	 style="enable-background:new 0 0 4.41 4.4;" xml:space="preserve">
<style type="text/css">
	.st0{fill:#FFFAE8;}
</style>
<g>
	<path class="st0" d="M2.21,0.11c1.16,0,2.09,0.94,2.09,2.09c0,1.1-0.84,2-1.91,2.09C2.33,4.3,2.27,4.3,2.21,4.3
		c-0.16,0-0.31-0.02-0.45-0.05C0.81,4.04,0.11,3.2,0.11,2.2C0.11,1.04,1.05,0.11,2.21,0.11 M2.21,0C0.99,0,0,0.99,0,2.2
		c0,1.02,0.73,1.93,1.73,2.15C1.88,4.39,2.04,4.4,2.21,4.4c0.07,0,0.13,0,0.2-0.01c1.12-0.09,2-1.05,2-2.19C4.41,0.99,3.42,0,2.21,0
		L2.21,0z"/>
</g>
<g>
	<path class="st0" d="M2.44,1.76C2.48,1.72,2.54,1.7,2.63,1.7c0.09,0,0.19,0.01,0.29,0.04L3,1.3C2.83,1.24,2.66,1.22,2.48,1.22
		c-0.18,0-0.32,0.03-0.43,0.09C1.94,1.38,1.86,1.45,1.82,1.55C1.77,1.64,1.75,1.8,1.75,2v0.17H1.41v0.5h0.35v1.58
		C1.9,4.28,2.05,4.3,2.21,4.3c0.06,0,0.12,0,0.18-0.01V2.67h0.46v-0.5H2.38V2.01C2.38,1.88,2.4,1.81,2.44,1.76z"/>
</g>
</svg>
